<svg width="326" height="311" viewBox="0 0 326 311" fill="none" xmlns="http://www.w3.org/2000/svg">
<path d="M218.211 110.53H184.994C182.512 110.53 180.484 112.538 180.484 115.036V165.34H179.644L154.976 113.115C154.225 111.543 152.651 110.53 150.903 110.53H104.679C102.196 110.53 100.168 112.538 100.168 115.036V213.181C100.168 215.661 102.179 217.687 104.679 217.687H137.896C140.378 217.687 142.406 215.679 142.406 213.181V162.423H143.228L169.679 215.19C170.449 216.709 172.005 217.67 173.7 217.67H218.194C220.676 217.67 222.704 215.661 222.704 213.163V115.036C222.722 112.556 220.711 110.53 218.211 110.53Z" fill="#BCED09"/>
<path d="M90.8264 244.703L70.985 272.057L64.4297 264.533L82.3773 242.856L82.5973 243.108L58.6811 257.935L52.1259 250.411L81.9101 234.469L90.8264 244.703Z" fill="#BCED09"/>
<path d="M63.7127 206.138L32.5513 216.781L29.6797 208.372L60.8411 197.73L63.7127 206.138Z" fill="#BCED09"/>
<path d="M54.3368 178.259L21.4804 176.079L22.2903 163.872C22.4371 161.659 22.9799 159.659 23.9189 157.872C24.8578 156.085 26.1067 154.572 27.6656 153.333C29.2244 152.094 31.023 151.176 33.0612 150.581C35.0994 149.985 37.2917 149.765 39.638 149.921C41.9844 150.076 44.1358 150.585 46.0923 151.445C48.0489 152.306 49.7327 153.454 51.1439 154.89C52.5403 156.325 53.5932 157.991 54.3027 159.888C55.0121 161.784 55.2934 163.839 55.1466 166.052L54.3368 178.259ZM52.3053 169.085L47.9822 172.87L48.3842 166.811C48.4689 165.534 48.1532 164.335 47.4371 163.213C46.7071 162.076 45.6287 161.132 44.2018 160.381C42.775 159.63 41.0518 159.188 39.0321 159.054C36.9976 158.919 35.2385 159.13 33.7546 159.688C32.2708 160.246 31.1142 161.042 30.2849 162.075C29.4418 163.093 28.9778 164.241 28.8931 165.518L28.4911 171.577L24.706 167.254L52.3053 169.085Z" fill="#BCED09"/>
<path d="M43.0575 104.454L41.7649 98.8554L52.651 105.658L49.5416 106.084L55.8115 96.0497L61.4912 99.5987L55.2213 109.633L54.2602 106.663L65.222 113.513L59.6233 114.805L68.2947 100.928L73.9744 104.477L62.6531 122.595L34.7279 105.146L46.0492 87.0277L51.7289 90.5767L43.0575 104.454Z" fill="#BCED09"/>
<path d="M104.168 75.5915C102.293 76.5986 100.338 77.2352 98.3013 77.5013C96.278 77.7603 94.2757 77.6025 92.2946 77.0279C90.3134 76.4534 88.4456 75.4293 86.6912 73.9559C84.9368 72.4824 83.4011 70.5197 82.0841 68.0679C80.7601 65.603 79.9652 63.2425 79.6993 60.9863C79.4466 58.7231 79.6247 56.617 80.2335 54.6682C80.8554 52.7123 81.8364 50.9689 83.1766 49.4381C84.5229 47.8872 86.1466 46.6011 88.0477 45.5799C89.9488 44.5587 91.9176 43.9151 93.9541 43.6491C95.9835 43.3699 97.9787 43.5146 99.9397 44.0831C101.914 44.6445 103.768 45.659 105.502 47.1264C107.237 48.5938 108.766 50.5599 110.09 53.0248C111.407 55.4767 112.195 57.8407 112.455 60.1171C112.715 62.3934 112.53 64.5196 111.902 66.4956C111.288 68.4647 110.307 70.2246 108.961 71.7756C107.628 73.3195 106.03 74.5915 104.168 75.5915ZM100.872 69.4555C101.843 68.9343 102.639 68.1685 103.262 67.1582C103.891 66.1276 104.146 64.8084 104.025 63.2005C103.918 61.5856 103.252 59.6374 102.026 57.3561C100.794 55.0616 99.541 53.4369 98.2679 52.4821C96.9877 51.5141 95.7579 51.0174 94.5786 50.992C93.3922 50.9535 92.3139 51.1948 91.3437 51.716C90.3866 52.2301 89.5899 52.9959 88.9539 54.0133C88.3239 55.0106 88.0589 56.3101 88.1591 57.9119C88.2522 59.5007 88.915 61.4422 90.1475 63.7367C91.38 66.0312 92.6398 67.669 93.927 68.6501C95.2072 69.618 96.444 70.1278 97.6375 70.1795C98.8369 70.2109 99.9152 69.9696 100.872 69.4555Z" fill="#BCED09"/>
<path d="M182.385 60.9166C180.031 60.2731 178.022 59.3231 176.36 58.0666C174.702 56.7956 173.531 55.2645 172.848 53.4733C172.179 51.6859 172.147 49.6868 172.751 47.4759C172.802 47.2893 172.853 47.1026 172.904 46.916C172.955 46.7294 173.006 46.5427 173.057 46.3561L181.736 48.7278C181.693 48.8857 181.649 49.0436 181.606 49.2016C181.563 49.3595 181.52 49.5174 181.477 49.6753C181.202 50.6803 181.281 51.6045 181.714 52.4479C182.162 53.2953 183.024 53.8936 184.302 54.2428C185.536 54.5802 186.555 54.6656 187.356 54.4989C188.176 54.3218 188.7 53.8169 188.927 52.9842C189.096 52.3669 188.915 51.7005 188.386 50.9849C187.871 50.2732 187.111 49.5255 186.106 48.7418C185.116 47.962 183.99 47.1684 182.73 46.3611C181.366 45.4793 180.119 44.452 178.99 43.2792C177.874 42.1104 177.067 40.7714 176.57 39.2622C176.076 37.7386 176.09 36.0221 176.611 34.1127C177.149 32.1458 178.154 30.6152 179.625 29.5208C181.101 28.412 182.859 27.7355 184.901 27.4911C186.957 27.2507 189.112 27.4385 191.366 28.0545C193.706 28.694 195.695 29.6309 197.333 30.8653C198.984 32.1036 200.155 33.5805 200.843 35.2961C201.531 37.0116 201.589 38.9174 201.016 41.0135C200.965 41.2001 200.916 41.3796 200.869 41.5519C200.822 41.7241 200.773 41.9036 200.722 42.0902L192.043 39.7185C192.063 39.6468 192.092 39.5391 192.132 39.3955C192.175 39.2376 192.206 39.1227 192.226 39.051C192.481 38.1178 192.431 37.2556 192.076 36.4644C191.736 35.6771 190.927 35.1089 189.649 34.7597C188.386 34.4144 187.347 34.3773 186.532 34.6484C185.732 34.9234 185.212 35.4988 184.973 36.3746C184.804 36.9919 184.942 37.6159 185.387 38.2466C185.836 38.863 186.508 39.5094 187.403 40.1861C188.312 40.8666 189.343 41.6112 190.495 42.4198C192.234 43.6203 193.717 44.8278 194.944 46.0424C196.174 47.2426 197.024 48.5627 197.495 50.0028C197.98 51.4467 197.961 53.1234 197.439 55.0328C196.894 57.0283 195.893 58.5753 194.435 59.6736C192.982 60.7576 191.21 61.3996 189.119 61.5995C187.042 61.8034 184.797 61.5757 182.385 60.9166Z" fill="#BCED09"/>
<path d="M255.509 71.3727L246.863 63.3605L252.605 63.1422L232.013 85.362L225.414 79.2467L246.006 57.0268L246.225 62.7687L237.595 54.7717L242.148 49.8595L260.061 66.4604L255.509 71.3727Z" fill="#BCED09"/>
<path d="M274.688 131.892C270.813 133.207 267.525 133.082 264.824 131.516C262.128 129.963 260.134 127.284 258.842 123.479C257.55 119.674 257.501 116.335 258.695 113.462C259.893 110.604 262.43 108.516 266.306 107.201C266.799 107.033 267.314 106.859 267.849 106.677C268.399 106.49 268.963 106.299 269.54 106.103L286.389 100.383L289.288 108.923L271.108 115.095C270.713 115.229 270.34 115.356 269.988 115.476C269.635 115.595 269.304 115.708 268.994 115.813C267.416 116.349 266.302 117.026 265.652 117.843C265.007 118.675 264.929 119.81 265.417 121.247C265.905 122.685 266.658 123.537 267.676 123.805C268.699 124.086 269.999 123.959 271.578 123.423L291.872 116.533L294.771 125.074L274.688 131.892Z" fill="#BCED09"/>
<path d="M269.455 165.453L301.703 172.115L299.228 184.096C298.779 186.267 297.968 188.174 296.793 189.816C295.617 191.457 294.173 192.785 292.459 193.799C290.745 194.812 288.838 195.475 286.737 195.785C284.637 196.096 282.435 196.013 280.132 195.538C277.829 195.062 275.768 194.264 273.947 193.143C272.127 192.022 270.617 190.654 269.416 189.038C268.229 187.425 267.414 185.631 266.972 183.655C266.529 181.679 266.532 179.605 266.98 177.433L269.455 165.453ZM270.211 174.818L275.012 171.661L273.783 177.608C273.524 178.861 273.673 180.093 274.228 181.302C274.795 182.528 275.734 183.611 277.045 184.551C278.355 185.49 280.002 186.164 281.984 186.574C283.981 186.986 285.752 187.018 287.298 186.669C288.845 186.32 290.099 185.69 291.063 184.779C292.037 183.887 292.654 182.813 292.913 181.56L294.142 175.613L297.299 180.414L270.211 174.818Z" fill="#BCED09"/>
<path d="M253.403 217.713L280.597 236.281L275.587 243.619L248.393 225.051L253.403 217.713Z" fill="#BCED09"/>
<path d="M223.653 249.945C225.468 248.834 227.385 248.088 229.403 247.708C231.408 247.336 233.416 247.38 235.427 247.843C237.437 248.305 239.36 249.222 241.194 250.594C243.029 251.967 244.673 253.84 246.125 256.214C247.586 258.6 248.513 260.912 248.905 263.15C249.285 265.395 249.226 267.508 248.727 269.488C248.217 271.476 247.335 273.272 246.083 274.875C244.826 276.5 243.278 277.875 241.437 279.002C239.596 280.128 237.667 280.882 235.649 281.262C233.638 281.655 231.638 281.623 229.648 281.166C227.646 280.716 225.737 279.808 223.923 278.44C222.109 277.073 220.472 275.196 219.011 272.809C217.558 270.436 216.638 268.12 216.25 265.861C215.863 263.603 215.927 261.47 216.443 259.462C216.946 257.461 217.826 255.649 219.083 254.025C220.327 252.408 221.85 251.048 223.653 249.945ZM227.289 255.886C226.349 256.461 225.597 257.27 225.032 258.314C224.462 259.378 224.282 260.71 224.493 262.308C224.691 263.915 225.466 265.822 226.818 268.031C228.177 270.253 229.52 271.804 230.845 272.686C232.177 273.58 233.433 274.007 234.612 273.966C235.799 273.937 236.862 273.636 237.801 273.061C238.728 272.494 239.48 271.684 240.058 270.633C240.631 269.602 240.822 268.289 240.632 266.695C240.449 265.115 239.678 263.213 238.319 260.992C236.959 258.77 235.609 257.206 234.268 256.299C232.936 255.405 231.672 254.965 230.478 254.981C229.278 255.017 228.215 255.319 227.289 255.886Z" fill="#BCED09"/>
</svg>
