<svg width="106" height="116" viewBox="0 0 106 116" fill="none" xmlns="http://www.w3.org/2000/svg">
<path d="M50.8257 66.3617C50.8257 51.2586 42.1722 49.1493 30.7198 49.1493H2.94742C1.93334 49.1493 1.12207 49.9606 1.12207 50.9746V90.8214C1.12207 91.8355 1.93334 92.6468 2.94742 92.6468H17.8207C18.8347 92.6468 19.646 91.8355 19.646 90.8214V83.1414H22.7829C23.77 87.9279 27.6235 91.6327 32.4776 92.4439C33.059 92.5656 33.6674 92.6468 34.33 92.6468H49.0004C50.0145 92.6468 50.8257 91.8355 50.8257 90.8214V83.1414C50.8257 82.1273 50.0145 81.3161 49.0004 81.3161H42.997C48.0674 79.2338 50.8257 74.9746 50.8257 66.3617ZM19.646 61.9403H28.0021C30.0573 61.9403 31.7745 63.5358 31.9367 65.5775C32.3153 70.3369 30.828 71.9324 26.7176 72.0676H19.646V61.9403Z" fill="#3822E4"/>
<path d="M74.9881 24.4327H99.0558C99.6372 24.4327 100.124 23.9594 100.124 23.3645V20.133C100.124 19.5515 99.6507 19.0648 99.0558 19.0648H74.9881V12.9262H100.151C101.165 12.9262 101.976 12.1149 101.976 11.1008V1.82535C101.976 0.811266 101.165 0 100.151 0H58.276C57.2619 0 56.4507 0.811266 56.4507 1.82535V41.6992C56.4507 42.6862 57.262 43.4975 58.249 43.4975H100.421C101.435 43.4975 102.247 42.6862 102.247 41.6721V32.9645C102.247 31.9504 101.435 31.1392 100.421 31.1392H74.9881V24.4327Z" fill="#3822E4"/>
<path d="M33.6945 22.2558H33.3564L23.3508 1.05465C23.0533 0.419153 22.4043 0.013524 21.7012 0.013524H2.94742C1.93334 0.013524 1.12207 0.82479 1.12207 1.83887V41.6856C1.12207 42.6997 1.93334 43.511 2.94742 43.511H16.428C17.4421 43.511 18.2533 42.6997 18.2533 41.6856V21.0659H18.5914L29.3136 42.4969C29.6246 43.1189 30.2601 43.511 30.9497 43.511H49.0004C50.0145 43.511 50.8257 42.6997 50.8257 41.6856V1.82535C50.8257 0.811266 50.0145 0 49.0004 0H35.5198C34.5057 0 33.6945 0.811266 33.6945 1.82535V22.2558Z" fill="#3822E4"/>
<path d="M105.316 70.6479C105.316 54.8552 97.6766 49.1493 82.8574 49.1493H58.276C57.2619 49.1493 56.4507 49.9606 56.4507 50.9746V90.578C56.4507 91.7273 57.3836 92.6468 58.5194 92.6468H82.8439C97.6631 92.6468 105.303 86.9273 105.303 71.1482C105.303 71.067 105.289 70.9859 105.289 70.9048C105.303 70.8101 105.316 70.729 105.316 70.6479ZM79.707 79.2879H74.7042V74.3932V62.5082H79.707C85.2236 62.5082 86.6974 65.5234 86.765 70.9048C86.6839 76.2592 85.2236 79.2879 79.707 79.2879Z" fill="#3822E4"/>
<path d="M3.47387 112L0.074868 101.219H1.93159L4.77658 110.248L7.65899 101.219H9.51572L6.11671 112H3.47387ZM11.3963 102.686V101.032H13.2006V102.686H11.3963ZM11.3963 112V103.914H13.2006V112H11.3963ZM19.5835 112.225C18.8398 112.225 18.1909 112.037 17.6369 111.663C17.0829 111.289 16.6536 110.78 16.3492 110.136C16.0447 109.492 15.8925 108.766 15.8925 107.957C15.8925 107.139 16.0447 106.41 16.3492 105.771C16.6586 105.127 17.0954 104.621 17.6594 104.251C18.2234 103.877 18.8872 103.69 19.6509 103.69C20.4195 103.69 21.0634 103.877 21.5824 104.251C22.1065 104.621 22.5033 105.127 22.7728 105.771C23.0424 106.415 23.1771 107.144 23.1771 107.957C23.1771 108.761 23.0424 109.487 22.7728 110.136C22.5033 110.78 22.1015 111.289 21.5675 111.663C21.0334 112.037 20.3721 112.225 19.5835 112.225ZM19.8605 110.607C20.3446 110.607 20.7339 110.498 21.0284 110.278C21.3279 110.053 21.545 109.741 21.6798 109.342C21.8195 108.943 21.8894 108.481 21.8894 107.957C21.8894 107.428 21.8195 106.966 21.6798 106.572C21.545 106.173 21.3329 105.863 21.0434 105.644C20.7539 105.419 20.3796 105.307 19.9204 105.307C19.4362 105.307 19.0369 105.427 18.7225 105.666C18.408 105.901 18.176 106.22 18.0262 106.624C17.8765 107.024 17.8016 107.468 17.8016 107.957C17.8016 108.451 17.874 108.9 18.0187 109.305C18.1685 109.704 18.3956 110.021 18.7 110.256C19.0045 110.49 19.3913 110.607 19.8605 110.607ZM21.8894 112V106.325H21.6648V101.219H23.4841V112H21.8894ZM30.1576 112.225C29.3391 112.225 28.6203 112.047 28.0014 111.693C27.3825 111.339 26.8984 110.847 26.549 110.218C26.2046 109.589 26.0324 108.866 26.0324 108.047C26.0324 107.164 26.2021 106.397 26.5415 105.749C26.8809 105.095 27.3526 104.588 27.9565 104.229C28.5604 103.869 29.2592 103.69 30.0528 103.69C30.8913 103.69 31.6026 103.887 32.1866 104.281C32.7755 104.67 33.2122 105.222 33.4967 105.936C33.7812 106.649 33.8886 107.49 33.8187 108.459H32.0293V107.8C32.0243 106.921 31.8696 106.28 31.5652 105.876C31.2607 105.472 30.7815 105.269 30.1277 105.269C29.389 105.269 28.84 105.499 28.4806 105.958C28.1212 106.412 27.9415 107.079 27.9415 107.957C27.9415 108.776 28.1212 109.41 28.4806 109.859C28.84 110.308 29.364 110.533 30.0528 110.533C30.497 110.533 30.8789 110.435 31.1983 110.241C31.5227 110.041 31.7723 109.754 31.947 109.38L33.7288 109.919C33.4194 110.647 32.9402 111.214 32.2914 111.618C31.6475 112.022 30.9363 112.225 30.1576 112.225ZM27.3725 108.459V107.096H32.9352V108.459H27.3725ZM39.9588 112.225C39.1502 112.225 38.444 112.042 37.84 111.678C37.2361 111.314 36.7669 110.812 36.4325 110.173C36.1031 109.529 35.9384 108.791 35.9384 107.957C35.9384 107.109 36.1081 106.365 36.4475 105.726C36.7869 105.087 37.2585 104.588 37.8625 104.229C38.4664 103.869 39.1652 103.69 39.9588 103.69C40.7724 103.69 41.4811 103.872 42.085 104.236C42.689 104.601 43.1581 105.105 43.4926 105.749C43.827 106.387 43.9942 107.124 43.9942 107.957C43.9942 108.796 43.8245 109.537 43.4851 110.181C43.1507 110.82 42.6815 111.321 42.0775 111.686C41.4736 112.045 40.7674 112.225 39.9588 112.225ZM39.9588 110.533C40.6775 110.533 41.2116 110.293 41.561 109.814C41.9103 109.335 42.085 108.716 42.085 107.957C42.085 107.174 41.9078 106.55 41.5535 106.085C41.1991 105.616 40.6675 105.382 39.9588 105.382C39.4746 105.382 39.0753 105.491 38.7609 105.711C38.4514 105.926 38.2218 106.228 38.0721 106.617C37.9224 107.001 37.8475 107.448 37.8475 107.957C37.8475 108.741 38.0247 109.367 38.3791 109.836C38.7384 110.3 39.265 110.533 39.9588 110.533ZM54.4287 112.225C53.64 112.225 52.9288 112.087 52.2949 111.813C51.666 111.538 51.1469 111.147 50.7377 110.637C50.3334 110.123 50.0763 109.514 49.9665 108.811L51.8382 108.526C51.9979 109.165 52.3249 109.659 52.819 110.009C53.3181 110.358 53.8921 110.533 54.541 110.533C54.9253 110.533 55.2871 110.473 55.6265 110.353C55.9659 110.233 56.2405 110.058 56.4501 109.829C56.6647 109.599 56.772 109.317 56.772 108.983C56.772 108.833 56.7471 108.696 56.6972 108.571C56.6472 108.441 56.5724 108.326 56.4726 108.227C56.3777 108.127 56.2529 108.037 56.0982 107.957C55.9485 107.872 55.7738 107.8 55.5741 107.74L52.789 106.916C52.5495 106.847 52.2899 106.754 52.0104 106.639C51.7359 106.52 51.4739 106.357 51.2243 106.153C50.9797 105.943 50.7776 105.679 50.6179 105.359C50.4631 105.035 50.3858 104.635 50.3858 104.161C50.3858 103.468 50.5605 102.886 50.9099 102.417C51.2642 101.943 51.7384 101.588 52.3324 101.354C52.9313 101.119 53.5951 101.004 54.3238 101.009C55.0625 101.014 55.7214 101.142 56.3004 101.391C56.8793 101.636 57.3635 101.993 57.7528 102.462C58.1421 102.931 58.4166 103.497 58.5763 104.161L56.6373 104.498C56.5574 104.119 56.4027 103.797 56.1731 103.532C55.9485 103.263 55.6715 103.058 55.342 102.919C55.0176 102.779 54.6707 102.704 54.3014 102.694C53.942 102.689 53.6076 102.744 53.2981 102.859C52.9937 102.968 52.7466 103.128 52.557 103.338C52.3723 103.547 52.2799 103.792 52.2799 104.071C52.2799 104.336 52.3598 104.553 52.5195 104.723C52.6792 104.888 52.8764 105.02 53.111 105.12C53.3506 105.214 53.5926 105.294 53.8372 105.359L55.7688 105.898C56.0333 105.968 56.3303 106.063 56.6597 106.183C56.9891 106.303 57.3061 106.47 57.6105 106.684C57.915 106.899 58.1646 107.181 58.3592 107.53C58.5589 107.88 58.6587 108.324 58.6587 108.863C58.6587 109.422 58.5414 109.914 58.3068 110.338C58.0772 110.757 57.7653 111.107 57.371 111.386C56.9767 111.666 56.525 111.875 56.0159 112.015C55.5117 112.155 54.9827 112.225 54.4287 112.225ZM65.9168 112C65.3827 112.1 64.8587 112.142 64.3446 112.127C63.8355 112.117 63.3788 112.025 62.9745 111.85C62.5702 111.671 62.2632 111.389 62.0536 111.004C61.8689 110.655 61.7716 110.298 61.7616 109.934C61.7516 109.569 61.7466 109.158 61.7466 108.698V101.668H63.5435V108.594C63.5435 108.918 63.546 109.202 63.551 109.447C63.5609 109.692 63.6134 109.891 63.7082 110.046C63.8879 110.345 64.1749 110.513 64.5692 110.548C64.9635 110.582 65.4127 110.563 65.9168 110.488V112ZM60.2792 105.329V103.914H65.9168V105.329H60.2792ZM71.586 112.232C70.9871 112.232 70.493 112.132 70.1037 111.933C69.7143 111.733 69.4049 111.478 69.1753 111.169C68.9457 110.86 68.776 110.53 68.6662 110.181C68.5564 109.831 68.484 109.502 68.4491 109.192C68.4191 108.878 68.4042 108.623 68.4042 108.429V103.914H70.2309V107.807C70.2309 108.057 70.2484 108.339 70.2833 108.653C70.3183 108.963 70.3981 109.262 70.5229 109.552C70.6527 109.836 70.8424 110.071 71.0919 110.256C71.3465 110.44 71.6884 110.533 72.1176 110.533C72.3472 110.533 72.5743 110.495 72.7989 110.42C73.0235 110.345 73.2257 110.218 73.4053 110.038C73.59 109.854 73.7373 109.602 73.8471 109.282C73.9569 108.963 74.0118 108.559 74.0118 108.069L75.0824 108.526C75.0824 109.215 74.9476 109.839 74.6781 110.398C74.4136 110.957 74.0218 111.404 73.5027 111.738C72.9836 112.067 72.3447 112.232 71.586 112.232ZM74.2289 112V109.492H74.0118V103.914H75.8236V112H74.2289ZM82.0672 112.225C81.3235 112.225 80.6747 112.037 80.1207 111.663C79.5666 111.289 79.1374 110.78 78.8329 110.136C78.5285 109.492 78.3762 108.766 78.3762 107.957C78.3762 107.139 78.5285 106.41 78.8329 105.771C79.1424 105.127 79.5791 104.621 80.1431 104.251C80.7071 103.877 81.3709 103.69 82.1346 103.69C82.9032 103.69 83.5471 103.877 84.0662 104.251C84.5903 104.621 84.9871 105.127 85.2566 105.771C85.5261 106.415 85.6609 107.144 85.6609 107.957C85.6609 108.761 85.5261 109.487 85.2566 110.136C84.9871 110.78 84.5853 111.289 84.0512 111.663C83.5172 112.037 82.8558 112.225 82.0672 112.225ZM82.3442 110.607C82.8284 110.607 83.2177 110.498 83.5122 110.278C83.8116 110.053 84.0288 109.741 84.1635 109.342C84.3033 108.943 84.3732 108.481 84.3732 107.957C84.3732 107.428 84.3033 106.966 84.1635 106.572C84.0288 106.173 83.8166 105.863 83.5271 105.644C83.2377 105.419 82.8633 105.307 82.4041 105.307C81.92 105.307 81.5207 105.427 81.2062 105.666C80.8918 105.901 80.6597 106.22 80.51 106.624C80.3602 107.024 80.2854 107.468 80.2854 107.957C80.2854 108.451 80.3577 108.9 80.5025 109.305C80.6522 109.704 80.8793 110.021 81.1838 110.256C81.4882 110.49 81.8751 110.607 82.3442 110.607ZM84.3732 112V106.325H84.1485V101.219H85.9678V112H84.3732ZM89.1151 102.686V101.032H90.9194V102.686H89.1151ZM89.1151 112V103.914H90.9194V112H89.1151ZM97.6317 112.225C96.8231 112.225 96.1168 112.042 95.5129 111.678C94.909 111.314 94.4398 110.812 94.1054 110.173C93.776 109.529 93.6113 108.791 93.6113 107.957C93.6113 107.109 93.781 106.365 94.1204 105.726C94.4598 105.087 94.9314 104.588 95.5354 104.229C96.1393 103.869 96.8381 103.69 97.6317 103.69C98.4452 103.69 99.154 103.872 99.7579 104.236C100.362 104.601 100.831 105.105 101.165 105.749C101.5 106.387 101.667 107.124 101.667 107.957C101.667 108.796 101.497 109.537 101.158 110.181C100.824 110.82 100.354 111.321 99.7504 111.686C99.1465 112.045 98.4402 112.225 97.6317 112.225ZM97.6317 110.533C98.3504 110.533 98.8845 110.293 99.2338 109.814C99.5832 109.335 99.7579 108.716 99.7579 107.957C99.7579 107.174 99.5807 106.55 99.2264 106.085C98.872 105.616 98.3404 105.382 97.6317 105.382C97.1475 105.382 96.7482 105.491 96.4338 105.711C96.1243 105.926 95.8947 106.228 95.745 106.617C95.5953 107.001 95.5204 107.448 95.5204 107.957C95.5204 108.741 95.6976 109.367 96.052 109.836C96.4113 110.3 96.9379 110.533 97.6317 110.533Z" fill="#3822E4"/>
</svg>
