<svg width="326" height="311" viewBox="0 0 326 311" fill="none" xmlns="http://www.w3.org/2000/svg">
<path d="M218.211 110.53H184.994C182.512 110.53 180.484 112.538 180.484 115.036V165.34H179.644L154.976 113.115C154.225 111.543 152.651 110.53 150.903 110.53H104.679C102.196 110.53 100.168 112.538 100.168 115.036V213.181C100.168 215.661 102.179 217.687 104.679 217.687H137.896C140.378 217.687 142.406 215.679 142.406 213.181V162.423H143.228L169.679 215.19C170.449 216.709 172.005 217.67 173.7 217.67H218.194C220.676 217.67 222.704 215.661 222.704 213.163V115.036C222.722 112.556 220.711 110.53 218.211 110.53Z" fill="#3822E4"/>
<path d="M90.8264 244.703L70.985 272.057L64.4297 264.533L82.3773 242.856L82.5973 243.108L58.6811 257.935L52.1259 250.411L81.9101 234.469L90.8264 244.703Z" fill="#3822E4"/>
<path d="M63.7127 206.138L32.5513 216.781L29.6797 208.372L60.8411 197.73L63.7127 206.138Z" fill="#3822E4"/>
<path d="M54.3363 178.259L21.4799 176.079L22.2898 163.872C22.4366 161.659 22.9794 159.659 23.9184 157.872C24.8573 156.085 26.1062 154.572 27.6651 153.333C29.2239 152.094 31.0225 151.177 33.0607 150.581C35.0989 149.985 37.2912 149.765 39.6376 149.921C41.9839 150.077 44.1353 150.585 46.0919 151.445C48.0484 152.306 49.7322 153.455 51.1435 154.891C52.5398 156.326 53.5927 157.991 54.3022 159.888C55.0116 161.785 55.2929 163.839 55.1461 166.052L54.3363 178.259ZM52.3048 169.085L47.9817 172.87L48.3837 166.812C48.4684 165.534 48.1527 164.335 47.4366 163.214C46.7066 162.076 45.6282 161.132 44.2013 160.381C42.7745 159.63 41.0513 159.188 39.0316 159.054C36.9971 158.919 35.238 159.13 33.7541 159.688C32.2703 160.246 31.1137 161.042 30.2844 162.076C29.4413 163.094 28.9773 164.241 28.8926 165.518L28.4906 171.577L24.7055 167.254L52.3048 169.085Z" fill="#3822E4"/>
<path d="M43.057 104.454L41.7644 98.8552L52.6505 105.657L49.5411 106.084L55.811 96.0496L61.4907 99.5986L55.2208 109.633L54.2597 106.663L65.2216 113.513L59.6228 114.805L68.2942 100.928L73.9739 104.477L62.6526 122.595L34.7274 105.146L46.0487 87.0276L51.7284 90.5766L43.057 104.454Z" fill="#3822E4"/>
<path d="M104.168 75.5914C102.293 76.5985 100.338 77.2351 98.3013 77.5011C96.278 77.7601 94.2757 77.6024 92.2946 77.0278C90.3134 76.4532 88.4456 75.4292 86.6912 73.9557C84.9368 72.4823 83.4011 70.5196 82.0841 68.0678C80.7601 65.6029 79.9652 63.2424 79.6993 60.9862C79.4466 58.7229 79.6247 56.6169 80.2335 54.668C80.8554 52.7121 81.8364 50.9688 83.1766 49.438C84.5229 47.887 86.1466 46.601 88.0477 45.5798C89.9488 44.5586 91.9176 43.915 93.9541 43.6489C95.9835 43.3698 97.9787 43.5145 99.9397 44.083C101.914 44.6444 103.768 45.6588 105.502 47.1262C107.237 48.5937 108.766 50.5598 110.09 53.0247C111.407 55.4765 112.195 57.8406 112.455 60.1169C112.715 62.3933 112.53 64.5195 111.902 66.4955C111.288 68.4645 110.307 70.2245 108.961 71.7755C107.628 73.3194 106.03 74.5914 104.168 75.5914ZM100.872 69.4554C101.843 68.9342 102.639 68.1684 103.262 67.158C103.891 66.1275 104.146 64.8083 104.025 63.2004C103.918 61.5855 103.252 59.6373 102.026 57.356C100.794 55.0615 99.541 53.4368 98.2679 52.4819C96.9877 51.514 95.7579 51.0173 94.5786 50.9919C93.3922 50.9534 92.3139 51.1947 91.3437 51.7159C90.3866 52.23 89.5899 52.9957 88.9539 54.0132C88.3239 55.0105 88.0589 56.31 88.1591 57.9118C88.2522 59.5005 88.915 61.4421 90.1475 63.7366C91.38 66.0311 92.6398 67.6688 93.927 68.6499C95.2072 69.6179 96.444 70.1277 97.6375 70.1793C98.8369 70.2108 99.9152 69.9695 100.872 69.4554Z" fill="#3822E4"/>
<path d="M182.385 60.9168C180.03 60.2734 178.022 59.3234 176.36 58.0668C174.701 56.7959 173.531 55.2648 172.847 53.4735C172.179 51.6862 172.147 49.6871 172.751 47.4761C172.802 47.2895 172.853 47.1029 172.904 46.9162C172.955 46.7296 173.006 46.543 173.057 46.3563L181.735 48.728C181.692 48.886 181.649 49.0439 181.606 49.2018C181.563 49.3597 181.519 49.5176 181.476 49.6756C181.202 50.6805 181.281 51.6047 181.714 52.4482C182.161 53.2956 183.024 53.8939 184.301 54.243C185.536 54.5805 186.554 54.6658 187.356 54.4992C188.175 54.3221 188.699 53.8172 188.927 52.9845C189.095 52.3672 188.915 51.7007 188.385 50.9851C187.87 50.2734 187.11 49.5258 186.105 48.742C185.115 47.9622 183.99 47.1687 182.729 46.3613C181.366 45.4795 180.119 44.4523 178.989 43.2795C177.874 42.1106 177.067 40.7716 176.569 39.2624C176.075 37.7388 176.089 36.0223 176.611 34.1129C177.148 32.1461 178.153 30.6155 179.625 29.5211C181.1 28.4123 182.859 27.7357 184.901 27.4914C186.957 27.251 189.112 27.4387 191.366 28.0547C193.706 28.6942 195.694 29.6312 197.332 30.8656C198.984 32.1039 200.154 33.5808 200.842 35.2963C201.531 37.0119 201.588 38.9177 201.016 41.0137C200.965 41.2004 200.916 41.3798 200.868 41.5521C200.821 41.7244 200.772 41.9038 200.721 42.0905L192.043 39.7188C192.062 39.647 192.092 39.5393 192.131 39.3958C192.174 39.2378 192.206 39.123 192.225 39.0512C192.48 38.118 192.43 37.2558 192.076 36.4646C191.736 35.6773 190.927 35.1091 189.649 34.7599C188.385 34.4147 187.346 34.3776 186.532 34.6487C185.731 34.9237 185.212 35.4991 184.972 36.3748C184.804 36.9921 184.942 37.6162 185.386 38.2469C185.835 38.8632 186.507 39.5097 187.402 40.1863C188.312 40.8669 189.342 41.6114 190.495 42.42C192.234 43.6205 193.717 44.828 194.943 46.0426C196.174 47.2429 197.024 48.563 197.494 50.003C197.979 51.4469 197.961 53.1236 197.439 55.033C196.894 57.0286 195.892 58.5755 194.435 59.6739C192.982 60.7578 191.209 61.3998 189.118 61.5997C187.041 61.8036 184.797 61.576 182.385 60.9168Z" fill="#3822E4"/>
<path d="M255.509 71.3727L246.863 63.3605L252.605 63.1422L232.013 85.362L225.414 79.2467L246.006 57.0268L246.225 62.7687L237.595 54.7717L242.148 49.8595L260.061 66.4604L255.509 71.3727Z" fill="#3822E4"/>
<path d="M274.688 131.892C270.813 133.207 267.525 133.082 264.824 131.516C262.128 129.963 260.134 127.284 258.842 123.479C257.55 119.674 257.501 116.335 258.695 113.462C259.893 110.604 262.43 108.516 266.306 107.201C266.799 107.033 267.314 106.859 267.849 106.677C268.399 106.49 268.963 106.299 269.54 106.103L286.389 100.383L289.288 108.923L271.108 115.095C270.713 115.229 270.34 115.356 269.988 115.476C269.635 115.595 269.304 115.708 268.994 115.813C267.416 116.349 266.302 117.026 265.652 117.843C265.007 118.675 264.929 119.81 265.417 121.247C265.905 122.685 266.658 123.537 267.676 123.805C268.699 124.086 269.999 123.959 271.578 123.423L291.872 116.533L294.771 125.074L274.688 131.892Z" fill="#3822E4"/>
<path d="M269.455 165.453L301.703 172.115L299.228 184.095C298.779 186.267 297.967 188.174 296.792 189.816C295.617 191.457 294.173 192.785 292.459 193.799C290.745 194.812 288.837 195.474 286.737 195.785C284.636 196.096 282.434 196.013 280.131 195.538C277.829 195.062 275.767 194.264 273.947 193.143C272.127 192.022 270.616 190.654 269.415 189.038C268.229 187.425 267.414 185.631 266.971 183.655C266.528 181.679 266.531 179.605 266.98 177.433L269.455 165.453ZM270.21 174.818L275.011 171.661L273.783 177.608C273.524 178.861 273.672 180.092 274.228 181.301C274.795 182.528 275.734 183.611 277.044 184.55C278.355 185.49 280.001 186.164 281.983 186.574C283.98 186.986 285.752 187.018 287.298 186.669C288.844 186.32 290.099 185.69 291.062 184.779C292.037 183.886 292.654 182.813 292.913 181.56L294.141 175.613L297.298 180.414L270.21 174.818Z" fill="#3822E4"/>
<path d="M253.403 217.713L280.597 236.281L275.587 243.619L248.392 225.051L253.403 217.713Z" fill="#3822E4"/>
<path d="M223.652 249.945C225.467 248.834 227.384 248.088 229.402 247.708C231.408 247.336 233.416 247.38 235.426 247.843C237.437 248.305 239.359 249.222 241.194 250.594C243.028 251.967 244.672 253.84 246.125 256.214C247.586 258.6 248.512 260.912 248.905 263.15C249.284 265.395 249.225 267.508 248.727 269.488C248.216 271.476 247.335 273.272 246.083 274.875C244.826 276.5 243.277 277.875 241.437 279.002C239.596 280.128 237.667 280.882 235.648 281.262C233.638 281.655 231.638 281.623 229.648 281.166C227.645 280.716 225.737 279.808 223.923 278.44C222.109 277.073 220.471 275.196 219.011 272.809C217.558 270.436 216.637 268.12 216.25 265.861C215.862 263.603 215.927 261.47 216.442 259.462C216.945 257.461 217.825 255.649 219.082 254.025C220.326 252.408 221.85 251.048 223.652 249.945ZM227.288 255.886C226.349 256.461 225.597 257.27 225.032 258.314C224.462 259.378 224.282 260.71 224.493 262.308C224.691 263.915 225.465 265.822 226.817 268.031C228.177 270.253 229.519 271.804 230.844 272.686C232.177 273.58 233.433 274.007 234.611 273.966C235.798 273.937 236.861 273.636 237.8 273.061C238.727 272.494 239.479 271.684 240.057 270.633C240.63 269.602 240.821 268.289 240.631 266.695C240.449 265.115 239.678 263.213 238.318 260.992C236.958 258.77 235.608 257.206 234.268 256.299C232.935 255.405 231.672 254.965 230.477 254.981C229.278 255.017 228.215 255.319 227.288 255.886Z" fill="#3822E4"/>
</svg>
