<svg width="146" height="160" viewBox="0 0 146 160" fill="none" xmlns="http://www.w3.org/2000/svg">
<path d="M70.2937 91.7807C70.2937 70.8926 58.3256 67.9753 42.4865 67.9753H4.07629C2.67377 67.9753 1.55176 69.0974 1.55176 70.4999V125.609C1.55176 127.012 2.67377 128.134 4.07629 128.134H24.6465C26.049 128.134 27.171 127.012 27.171 125.609V114.988H31.5095C32.8746 121.608 38.2042 126.731 44.9175 127.853C45.7217 128.022 46.5632 128.134 47.4795 128.134H67.7692C69.1717 128.134 70.2937 127.012 70.2937 125.609V114.988C70.2937 113.585 69.1717 112.463 67.7692 112.463H59.4663C66.4789 109.583 70.2937 103.693 70.2937 91.7807ZM27.171 85.6657H38.7278C41.5702 85.6657 43.9451 87.8724 44.1695 90.6961C44.6931 97.2786 42.6361 99.4852 36.9513 99.6722H27.171V85.6657Z" fill="#BCED09"/>
<path d="M103.711 33.7913H136.998C137.802 33.7913 138.475 33.1368 138.475 32.314V27.8446C138.475 27.0405 137.82 26.3673 136.998 26.3673H103.711V17.8774H138.512C139.915 17.8774 141.037 16.7554 141.037 15.3529V2.52453C141.037 1.12201 139.915 0 138.512 0H80.5978C79.1953 0 78.0732 1.12201 78.0732 2.52453V57.6714C78.0732 59.0365 79.1953 60.1586 80.5604 60.1586H138.886C140.289 60.1586 141.411 59.0366 141.411 57.634V45.5911C141.411 44.1886 140.289 43.0666 138.886 43.0666H103.711V33.7913Z" fill="#BCED09"/>
<path d="M46.6006 30.7805H46.1331L32.2949 1.45861C31.8835 0.579704 30.9859 0.0187042 30.0135 0.0187042H4.07629C2.67377 0.0187042 1.55176 1.14071 1.55176 2.54323V57.6527C1.55176 59.0553 2.67377 60.1773 4.07629 60.1773H22.7204C24.1229 60.1773 25.2449 59.0553 25.2449 57.6527V29.1349H25.7124L40.5417 58.7748C40.9718 59.635 41.8507 60.1773 42.8044 60.1773H67.7692C69.1717 60.1773 70.2937 59.0553 70.2937 57.6527V2.52453C70.2937 1.12201 69.1717 0 67.7692 0H49.1251C47.7226 0 46.6006 1.12201 46.6006 2.52453V30.7805Z" fill="#BCED09"/>
<path d="M145.656 97.7087C145.656 75.8668 135.09 67.9753 114.595 67.9753H80.5978C79.1953 67.9753 78.0732 69.0974 78.0732 70.4999V125.273C78.0732 126.862 79.3636 128.134 80.9344 128.134H114.576C135.071 128.134 145.637 120.224 145.637 98.4006C145.637 98.2884 145.618 98.1762 145.618 98.064C145.637 97.9331 145.656 97.8209 145.656 97.7087ZM110.238 109.658H103.319V102.889V86.4512H110.238C117.867 86.4512 119.906 90.6213 119.999 98.064C119.887 105.469 117.867 109.658 110.238 109.658Z" fill="#BCED09"/>
<path d="M4.80449 154.771L0.103545 139.861H2.67146L6.60618 152.349L10.5927 139.861H13.1606L8.45963 154.771H4.80449ZM15.7615 141.89V139.602H18.2569V141.89H15.7615ZM15.7615 154.771V143.589H18.2569V154.771H15.7615ZM27.0846 155.082C26.0561 155.082 25.1587 154.823 24.3925 154.306C23.6262 153.788 23.0326 153.084 22.6115 152.193C22.1904 151.303 21.9799 150.298 21.9799 149.18C21.9799 148.048 22.1904 147.04 22.6115 146.157C23.0395 145.266 23.6435 144.565 24.4235 144.055C25.2036 143.537 26.1217 143.278 27.1778 143.278C28.2409 143.278 29.1314 143.537 29.8493 144.055C30.5741 144.565 31.1229 145.266 31.4957 146.157C31.8684 147.047 32.0548 148.055 32.0548 149.18C32.0548 150.291 31.8684 151.296 31.4957 152.193C31.1229 153.084 30.5672 153.788 29.8286 154.306C29.09 154.823 28.1753 155.082 27.0846 155.082ZM27.4678 152.846C28.1374 152.846 28.6758 152.694 29.0831 152.39C29.4972 152.079 29.7975 151.648 29.9839 151.096C30.1772 150.543 30.2738 149.905 30.2738 149.18C30.2738 148.448 30.1772 147.81 29.9839 147.264C29.7975 146.712 29.5041 146.284 29.1038 145.981C28.7034 145.67 28.1857 145.515 27.5506 145.515C26.881 145.515 26.3288 145.68 25.8939 146.012C25.459 146.336 25.138 146.778 24.9309 147.337C24.7238 147.889 24.6203 148.504 24.6203 149.18C24.6203 149.863 24.7204 150.485 24.9206 151.044C25.1276 151.596 25.4417 152.034 25.8628 152.359C26.2839 152.683 26.8189 152.846 27.4678 152.846ZM30.2738 154.771V146.923H29.9632V139.861H32.4793V154.771H30.2738ZM41.7091 155.082C40.577 155.082 39.583 154.837 38.727 154.347C37.871 153.857 37.2014 153.177 36.7182 152.307C36.2419 151.437 36.0038 150.436 36.0038 149.304C36.0038 148.082 36.2385 147.023 36.7079 146.125C37.1773 145.221 37.8296 144.521 38.6649 144.024C39.5001 143.526 40.4666 143.278 41.5641 143.278C42.7238 143.278 43.7075 143.551 44.5152 144.096C45.3297 144.634 45.9337 145.397 46.3272 146.384C46.7207 147.371 46.8691 148.535 46.7725 149.874H44.2977V148.963C44.2908 147.748 44.0768 146.861 43.6557 146.301C43.2347 145.742 42.572 145.463 41.6677 145.463C40.646 145.463 39.8867 145.78 39.3897 146.415C38.8927 147.044 38.6442 147.965 38.6442 149.18C38.6442 150.312 38.8927 151.189 39.3897 151.81C39.8867 152.431 40.6115 152.742 41.5641 152.742C42.1785 152.742 42.7066 152.607 43.1484 152.338C43.5971 152.062 43.9422 151.665 44.1838 151.147L46.6482 151.893C46.2202 152.901 45.5575 153.684 44.6601 154.243C43.7696 154.803 42.786 155.082 41.7091 155.082ZM37.8572 149.874V147.989H45.5506V149.874H37.8572ZM55.2644 155.082C54.1462 155.082 53.1694 154.83 52.3341 154.326C51.4989 153.822 50.85 153.129 50.3875 152.245C49.9319 151.354 49.7041 150.333 49.7041 149.18C49.7041 148.007 49.9388 146.978 50.4082 146.094C50.8776 145.211 51.5299 144.521 52.3652 144.024C53.2004 143.526 54.1669 143.278 55.2644 143.278C56.3896 143.278 57.3699 143.53 58.2051 144.034C59.0404 144.538 59.6893 145.235 60.1518 146.125C60.6143 147.009 60.8455 148.027 60.8455 149.18C60.8455 150.34 60.6108 151.365 60.1414 152.255C59.6789 153.139 59.03 153.833 58.1948 154.337C57.3595 154.834 56.3827 155.082 55.2644 155.082ZM55.2644 152.742C56.2585 152.742 56.9971 152.411 57.4803 151.748C57.9635 151.085 58.2051 150.229 58.2051 149.18C58.2051 148.096 57.9601 147.233 57.47 146.591C56.9798 145.943 56.2447 145.618 55.2644 145.618C54.5949 145.618 54.0426 145.77 53.6077 146.074C53.1797 146.371 52.8622 146.788 52.6551 147.327C52.448 147.858 52.3445 148.476 52.3445 149.18C52.3445 150.264 52.5895 151.13 53.0796 151.779C53.5767 152.421 54.3049 152.742 55.2644 152.742ZM75.2768 155.082C74.1861 155.082 73.2024 154.892 72.3258 154.513C71.456 154.133 70.7381 153.591 70.172 152.887C69.6129 152.176 69.2574 151.334 69.1055 150.36L71.6941 149.967C71.915 150.851 72.3672 151.534 73.0506 152.017C73.7409 152.5 74.5347 152.742 75.4321 152.742C75.9636 152.742 76.4641 152.659 76.9335 152.493C77.4029 152.328 77.7826 152.086 78.0725 151.769C78.3693 151.451 78.5178 151.061 78.5178 150.599C78.5178 150.392 78.4832 150.202 78.4142 150.029C78.3452 149.85 78.2416 149.691 78.1036 149.553C77.9724 149.415 77.7998 149.29 77.5859 149.18C77.3788 149.063 77.1372 148.963 76.861 148.88L73.0092 147.741C72.6778 147.644 72.3189 147.516 71.9323 147.358C71.5526 147.192 71.1902 146.968 70.8451 146.685C70.5068 146.395 70.2272 146.029 70.0064 145.587C69.7924 145.138 69.6854 144.586 69.6854 143.93C69.6854 142.971 69.927 142.167 70.4102 141.518C70.9003 140.862 71.5561 140.372 72.3775 140.047C73.2059 139.723 74.124 139.564 75.1318 139.571C76.1535 139.578 77.0647 139.754 77.8654 140.099C78.6662 140.437 79.3358 140.931 79.8742 141.58C80.4126 142.229 80.7923 143.012 81.0132 143.93L78.3314 144.396C78.2209 143.872 78.0069 143.426 77.6894 143.061C77.3788 142.688 76.9956 142.405 76.54 142.211C76.0914 142.018 75.6116 141.915 75.1008 141.901C74.6038 141.894 74.1413 141.97 73.7133 142.129C73.2922 142.28 72.9505 142.501 72.6882 142.791C72.4328 143.081 72.3051 143.419 72.3051 143.806C72.3051 144.172 72.4155 144.472 72.6364 144.707C72.8573 144.935 73.13 145.118 73.4544 145.256C73.7857 145.387 74.1205 145.497 74.4588 145.587L77.1303 146.333C77.4961 146.429 77.9068 146.56 78.3624 146.726C78.818 146.892 79.2564 147.123 79.6775 147.42C80.0985 147.717 80.4437 148.107 80.7129 148.59C80.989 149.073 81.1271 149.687 81.1271 150.433C81.1271 151.206 80.9649 151.886 80.6404 152.473C80.3229 153.053 79.8915 153.536 79.3461 153.922C78.8008 154.309 78.1761 154.599 77.472 154.792C76.7747 154.985 76.043 155.082 75.2768 155.082ZM91.1653 154.771C90.4267 154.91 89.7019 154.968 88.9909 154.948C88.2868 154.934 87.6551 154.806 87.096 154.564C86.5368 154.316 86.1123 153.926 85.8224 153.394C85.567 152.911 85.4324 152.418 85.4186 151.914C85.4047 151.41 85.3978 150.84 85.3978 150.205V140.482H87.8829V150.06C87.8829 150.509 87.8864 150.902 87.8933 151.241C87.9071 151.579 87.9796 151.855 88.1107 152.069C88.3592 152.483 88.7562 152.714 89.3015 152.763C89.8468 152.811 90.4681 152.783 91.1653 152.68V154.771ZM83.3684 145.546V143.589H91.1653V145.546H83.3684ZM99.0061 155.092C98.1777 155.092 97.4943 154.954 96.9559 154.678C96.4175 154.402 95.9895 154.05 95.6719 153.622C95.3544 153.194 95.1197 152.739 94.9678 152.255C94.816 151.772 94.7159 151.317 94.6676 150.889C94.6261 150.454 94.6054 150.102 94.6054 149.832V143.589H97.1319V148.973C97.1319 149.318 97.1561 149.708 97.2044 150.143C97.2527 150.571 97.3632 150.985 97.5358 151.386C97.7152 151.779 97.9776 152.103 98.3227 152.359C98.6748 152.614 99.1476 152.742 99.7413 152.742C100.059 152.742 100.373 152.69 100.684 152.587C100.994 152.483 101.274 152.307 101.522 152.059C101.778 151.803 101.981 151.455 102.133 151.013C102.285 150.571 102.361 150.012 102.361 149.335L103.842 149.967C103.842 150.92 103.655 151.782 103.283 152.556C102.917 153.329 102.375 153.947 101.657 154.409C100.939 154.865 100.055 155.092 99.0061 155.092ZM102.661 154.771V151.303H102.361V143.589H104.867V154.771H102.661ZM113.502 155.082C112.473 155.082 111.576 154.823 110.81 154.306C110.044 153.788 109.45 153.084 109.029 152.193C108.608 151.303 108.397 150.298 108.397 149.18C108.397 148.048 108.608 147.04 109.029 146.157C109.457 145.266 110.061 144.565 110.841 144.055C111.621 143.537 112.539 143.278 113.595 143.278C114.658 143.278 115.549 143.537 116.267 144.055C116.991 144.565 117.54 145.266 117.913 146.157C118.286 147.047 118.472 148.055 118.472 149.18C118.472 150.291 118.286 151.296 117.913 152.193C117.54 153.084 116.984 153.788 116.246 154.306C115.507 154.823 114.593 155.082 113.502 155.082ZM113.885 152.846C114.555 152.846 115.093 152.694 115.5 152.39C115.915 152.079 116.215 151.648 116.401 151.096C116.594 150.543 116.691 149.905 116.691 149.18C116.691 148.448 116.594 147.81 116.401 147.264C116.215 146.712 115.921 146.284 115.521 145.981C115.121 145.67 114.603 145.515 113.968 145.515C113.298 145.515 112.746 145.68 112.311 146.012C111.876 146.336 111.555 146.778 111.348 147.337C111.141 147.889 111.038 148.504 111.038 149.18C111.038 149.863 111.138 150.485 111.338 151.044C111.545 151.596 111.859 152.034 112.28 152.359C112.701 152.683 113.236 152.846 113.885 152.846ZM116.691 154.771V146.923H116.38V139.861H118.897V154.771H116.691ZM123.249 141.89V139.602H125.745V141.89H123.249ZM123.249 154.771V143.589H125.745V154.771H123.249ZM135.028 155.082C133.91 155.082 132.933 154.83 132.098 154.326C131.263 153.822 130.614 153.129 130.151 152.245C129.696 151.354 129.468 150.333 129.468 149.18C129.468 148.007 129.702 146.978 130.172 146.094C130.641 145.211 131.294 144.521 132.129 144.024C132.964 143.526 133.931 143.278 135.028 143.278C136.153 143.278 137.134 143.53 137.969 144.034C138.804 144.538 139.453 145.235 139.915 146.125C140.378 147.009 140.609 148.027 140.609 149.18C140.609 150.34 140.375 151.365 139.905 152.255C139.443 153.139 138.794 153.833 137.958 154.337C137.123 154.834 136.146 155.082 135.028 155.082ZM135.028 152.742C136.022 152.742 136.761 152.411 137.244 151.748C137.727 151.085 137.969 150.229 137.969 149.18C137.969 148.096 137.724 147.233 137.234 146.591C136.744 145.943 136.008 145.618 135.028 145.618C134.359 145.618 133.806 145.77 133.371 146.074C132.943 146.371 132.626 146.788 132.419 147.327C132.212 147.858 132.108 148.476 132.108 149.18C132.108 150.264 132.353 151.13 132.843 151.779C133.34 152.421 134.069 152.742 135.028 152.742Z" fill="#BCED09"/>
</svg>
