<svg width="80" height="80" viewBox="0 0 80 80" fill="none" xmlns="http://www.w3.org/2000/svg">
<path d="M40 16.2143C27.0179 16.2143 16.4643 26.7679 16.4464 39.75C16.4464 44.1964 17.6964 48.5357 20.0536 52.2679L20.6071 53.1607L18.2321 61.8393L27.1429 59.5L28 60.0179C31.6071 62.1607 35.75 63.3036 39.9821 63.3036H40C52.9643 63.3036 63.8036 52.75 63.8036 39.7679C63.8036 33.4821 61.0893 27.5714 56.6429 23.125C52.1786 18.6607 46.2857 16.2143 40 16.2143ZM53.8393 49.8571C53.25 51.5179 50.4286 53.0179 49.0714 53.2143C46.8214 53.5536 45.0714 53.375 40.5893 51.4464C33.5 48.375 28.8571 41.2321 28.5 40.7679C28.1429 40.3036 25.6071 36.9286 25.6071 33.4464C25.6071 29.9643 27.4286 28.25 28.0893 27.5357C28.7321 26.8214 29.5 26.6429 29.9821 26.6429C30.4464 26.6429 30.9286 26.6429 31.3393 26.6607C31.7679 26.6786 32.3571 26.5 32.9286 27.875C33.5179 29.2857 34.9286 32.7679 35.1071 33.125C35.2857 33.4821 35.4107 33.8929 35.1607 34.3571C33.8036 37.0714 32.3571 36.9643 33.0893 38.2143C35.8214 42.9107 38.5536 44.5357 42.7143 46.625C43.4286 46.9821 43.8393 46.9286 44.25 46.4464C44.6607 45.9821 46.0179 44.375 46.4821 43.6786C46.9464 42.9643 47.4286 43.0893 48.0714 43.3214C48.7143 43.5536 52.1964 45.2679 52.9107 45.625C53.625 45.9821 54.0893 46.1607 54.2679 46.4464C54.4286 46.7857 54.4286 48.2143 53.8393 49.8571ZM71.4286 0H8.57143C3.83929 0 0 3.83929 0 8.57143V71.4286C0 76.1607 3.83929 80 8.57143 80H71.4286C76.1607 80 80 76.1607 80 71.4286V8.57143C80 3.83929 76.1607 0 71.4286 0ZM39.9821 68.0714C35.2321 68.0714 30.5714 66.875 26.4464 64.625L11.4286 68.5714L15.4464 53.8929C12.9643 49.6071 11.6607 44.7321 11.6607 39.7321C11.6786 24.125 24.375 11.4286 39.9821 11.4286C47.5536 11.4286 54.6607 14.375 60.0179 19.7321C65.3571 25.0893 68.5714 32.1964 68.5714 39.7679C68.5714 55.375 55.5893 68.0714 39.9821 68.0714Z" fill="#BCED09"/>
</svg>
